<svg fill="#ffffff" role="img" viewBox="0 0 72 24" xmlns="http://www.w3.org/2000/svg"><title>Uber</title><path d="M0.269 0v14.763c0 5.559 3.877 9.234 8.932 9.234 2.46 0 4.651-0.941 6.236-2.591v2.192H18.938V0H15.401v14.555c0 3.743-2.531 6.271-5.798 6.27-3.305 0-5.794-2.462-5.794-6.27V0.003H0.269z m22.153 0v23.598h3.365v-2.159c1.551 1.584 3.743 2.561 6.134 2.561a8.951 8.951 0 0 0 9.034-8.963 8.963 8.963 0 0 0-9.031-9.004 8.516 8.516 0 0 0-6.102 2.563V0.003H22.419z m29.386 6.068c-5.023 0-8.829 4.079-8.828 8.933 0 5.122 3.972 8.963 9.129 8.963 3.135 0 5.696-1.379 7.414-3.672l-2.459-1.819c-1.28 1.718-2.966 2.522-4.955 2.522-2.897 0-5.22-2.084-5.693-4.883h13.986v-1.111c0-5.122-3.639-8.933-8.594-8.933z m18.744 0.203c-1.888 0-3.269 0.875-4.112 2.257v-2.123h-3.367v17.193h3.4V13.816c0-2.662 1.62-4.377 3.844-4.377H71.731v-3.171h-1.179z m-18.815 2.763c2.531 0 4.657 1.751 5.228 4.377H46.481c0.604-2.626 2.727-4.377 5.256-4.377z m-20.046 0.036c3.234 0 5.896 2.629 5.896 5.967a5.934 5.934 0 0 1-5.896 5.958A5.922 5.922 0 0 1 25.757 15.037a5.925 5.925 0 0 1 5.931-5.967z"></path></svg>